# ProBuilder 4.5.0
# https://unity3d.com/unity/features/worldbuilding/probuilder
# 17.04.2021 1:40:08

mtllib ./Cone.mtl
o Cone

g Cone
v -20 -80.75681 -2.469634E-06
v -18.27091 -80.7568 8.134735
v 0 0 0
v 0 -80.75681 -2.469634E-06
v -13.38261 -80.7568 14.8629
v -6.18034 -80.7568 19.02114
v 2.09057 -80.7568 19.89044
v 10 -80.7568 17.32051
v 16.18034 -80.7568 11.75571
v 19.56295 -80.75681 4.158232
v 19.56295 -80.75681 -4.15824
v 16.18034 -80.75681 -11.75571
v 9.999998 -80.75681 -17.32052
v 2.090567 -80.75681 -19.89045
v -6.180343 -80.75681 -19.02114
v -13.38262 -80.75681 -14.8629
v -18.27091 -80.75681 -8.134736

vt 0 3.015965E-08
vt 8.316468 0
vt 4.158236 63.10871
vt -20 -7.820969E-05
vt -18.27091 8.13466
vt -13.38259 14.86289
vt -6.180324 19.02111
vt 2.090574 19.89041
vt 9.99999 17.32048
vt 16.18032 11.75568
vt 19.56297 4.158158
vt 19.56295 -4.15824
vt 16.18034 -11.75571
vt 9.999998 -17.32052
vt 2.090567 -19.89045
vt -6.180343 -19.02114
vt -13.38262 -14.8629
vt -18.27091 -8.134736

vn -0.7792497 -0.6267136 3.481129E-07
vn -0.71188 -0.6267135 0.3169496
vn 5.063347E-08 1 -1.47681E-07
vn -2.431984E-08 -1 2.313878E-07
vn -0.52142 -0.6267135 0.5790954
vn -0.2408014 -0.6267135 0.7411106
vn 0.08145392 -0.6267135 0.774981
vn 0.389625 -0.6267134 0.67485
vn 0.6304263 -0.6267136 0.4580315
vn 0.7622212 -0.6267136 0.1620151
vn 0.7622213 -0.6267136 -0.1620149
vn 0.6304263 -0.6267136 -0.4580313
vn 0.3896248 -0.6267136 -0.67485
vn 0.08145369 -0.6267136 -0.7749809
vn -0.2408015 -0.6267136 -0.7411105
vn -0.52142 -0.6267136 -0.5790952
vn -0.7118801 -0.6267136 -0.3169492

usemtl signal
f 1/1/1 2/2/2 3/3/3
f 4/1/4 2/5/2 1/4/1
f 2/1/2 5/2/5 3/3/3
f 4/1/4 5/6/5 2/5/2
f 5/1/5 6/2/6 3/3/3
f 4/1/4 6/7/6 5/6/5
f 6/1/6 7/2/7 3/3/3
f 4/1/4 7/8/7 6/7/6
f 7/1/7 8/2/8 3/3/3
f 4/1/4 8/9/8 7/8/7
f 8/1/8 9/2/9 3/3/3
f 4/1/4 9/10/9 8/9/8
f 9/1/9 10/2/10 3/3/3
f 4/1/4 10/11/10 9/10/9
f 10/1/10 11/2/11 3/3/3
f 4/1/4 11/12/11 10/11/10
f 11/1/11 12/2/12 3/3/3
f 4/1/4 12/13/12 11/12/11
f 12/1/12 13/2/13 3/3/3
f 4/1/4 13/14/13 12/13/12
f 13/1/13 14/2/14 3/3/3
f 4/1/4 14/15/14 13/14/13
f 14/1/14 15/2/15 3/3/3
f 4/1/4 15/16/15 14/15/14
f 15/1/15 16/2/16 3/3/3
f 4/1/4 16/17/16 15/16/15
f 16/1/16 17/2/17 3/3/3
f 4/1/4 17/18/17 16/17/16
f 17/1/17 1/2/1 3/3/3
f 4/1/4 1/4/1 17/18/17

usemtl ProBuilderDefault

